<svg width="40" height="40" viewBox="0 0 40 40" xmlns="http://www.w3.org/2000/svg"><g fill="none" fill-rule="evenodd"><path d="M11.006605 5.715544L9.51235 3.166122C12.448762 1.333092 15.917975.273874 19.63458.273874c.37836 0 .754153.010978 1.127083.03263l-.162376 2.948952c-.319166-.018758-.640827-.02827-.964708-.02827-3.171695 0-6.130354.91212-8.627977 2.488358z" fill="#F0F2F1"/><path d="M19.60185 3.22722L19.59061.273917c.014654-.000027.029312-.000044.043974-.000044 10.571748 0 19.141842 8.570095 19.141842 19.141843 0 7.226135-4.004093 13.517065-9.914596 16.775103l-1.49564-2.548704c5.038055-2.743825 8.456924-8.085853 8.456924-14.2264 0-8.940677-7.247852-16.18853-16.18853-16.18853-.010913 0-.021823.000012-.03273.000033z" fill-opacity=".5" fill="#12A5CC"/><path d="M6.499313 28.879962c-.875692.564696-1.71377 1.106522-2.482865 1.605667 3.468495 4.884718 9.171108 8.07193 15.618134 8.07193 4.302483 0 8.273428-1.419484 11.470063-3.81568l-1.835837-2.31527c-2.69198 1.99663-6.025184 3.177637-9.634226 3.177637-5.407223 0-10.19526-2.651044-13.13527-6.724285z" fill="#F0F2F1"/><path d="M7.515198 30.148608L5.1928 31.97979C2.265395 28.617728.49274 24.223736.49274 19.415718c0-1.251773.120155-2.475482.34956-3.660223l2.870078.720137c-.17493.953438-.266326 1.93609-.266326 2.940087 0 4.117546 1.537253 7.876047 4.069146 10.73289z" fill="#F0F2F1"/><path d="M3.614023 17.075072l-2.896687-.600788c.87918-5.700698 4.273554-10.571355 9.01394-13.442792l1.471438 2.562234c-4.02004 2.457603-6.88461 6.619726-7.58869 11.481346z" fill="#F0F2F1"/><text font-family="HelveticaNeue-Medium, Helvetica Neue" font-size="15" font-weight="400" fill="#444"><tspan x="14.122617" y="24.7855">D</tspan></text></g></svg>