<svg xmlns="http://www.w3.org/2000/svg" xmlns:xlink="http://www.w3.org/1999/xlink" display="none"><symbol viewBox="0 0 24 24" id="team_w_filter" xmlns="http://www.w3.org/2000/svg" ><path d="M 15.12 12 L 15.12 12.192 L 13.658 12.192 C 12.126 12.192 11.329 13.979 12.274 15.129 L 12.284 15.142 L 14.159 17.325 C 14.135 18.097 13.497 18.72 12.72 18.72 L 11.76 18.72 C 10.968 18.72 10.32 18.072 10.32 17.28 L 10.32 15.12 C 10.067 15.116 9.825 15.013 9.648 14.832 C 9.48 14.664 9.36 14.424 9.36 14.16 L 9.36 12 C 9.36 11.208 10.008 10.56 10.8 10.56 L 13.68 10.56 C 14.472 10.56 15.12 11.208 15.12 12 Z M 13.428 6.732 C 14.084 7.388 14.084 8.452 13.428 9.108 C 12.771 9.765 11.707 9.764 11.051 9.108 C 10.395 8.452 10.395 7.388 11.052 6.731 C 11.708 6.075 12.772 6.076 13.428 6.732 Z M 8.88 16.2 L 8.88 17.424 C 8.88 17.52 8.832 17.592 8.736 17.64 C 8.568 17.712 8.376 17.76 8.16 17.76 L 7.2 17.76 C 6.408 17.76 5.76 17.112 5.76 16.32 L 5.76 14.16 C 5.507 14.156 5.265 14.053 5.088 13.872 C 4.92 13.704 4.8 13.464 4.8 13.2 L 4.8 11.04 C 4.8 10.248 5.448 9.6 6.24 9.6 L 8.544 9.6 C 8.736 9.6 8.856 9.864 8.712 10.008 C 8.208 10.512 7.896 11.232 7.896 12 L 7.896 14.16 C 7.896 14.784 8.16 15.384 8.616 15.864 C 8.664 15.912 8.736 15.96 8.784 16.008 C 8.847 16.051 8.884 16.124 8.88 16.2 Z M 8.868 5.772 C 9.524 6.428 9.524 7.492 8.868 8.149 C 8.211 8.805 7.147 8.804 6.491 8.148 C 5.835 7.492 5.835 6.428 6.492 5.772 C 7.148 5.115 8.212 5.116 8.868 5.772 Z M 19.68 11.04 L 19.68 12.192 L 16.584 12.192 L 16.584 12 C 16.584 11.232 16.272 10.536 15.768 10.008 C 15.624 9.84 15.72 9.6 15.936 9.6 L 18.24 9.6 C 19.032 9.6 19.68 10.248 19.68 11.04 Z M 17.988 5.772 C 18.644 6.428 18.644 7.492 17.988 8.149 C 17.331 8.805 16.267 8.804 15.611 8.148 C 14.955 7.492 14.955 6.428 15.612 5.772 C 16.268 5.115 17.332 5.116 17.988 5.772 Z" fill="rgba(152, 173, 204, 1.00)"/><path d="M 21.342 13.692 L 13.658 13.692 C 13.416 13.692 13.277 13.987 13.433 14.177 L 16.808 18.106 C 16.915 18.232 16.976 18.391 16.981 18.556 L 16.981 21.048 C 16.985 21.19 17.099 21.304 17.241 21.308 L 17.76 21.308 C 17.902 21.304 18.015 21.19 18.019 21.048 L 18.019 18.556 C 18.019 18.383 18.071 18.226 18.192 18.106 L 21.567 14.176 C 21.642 14.089 21.659 13.966 21.611 13.861 C 21.562 13.757 21.457 13.691 21.342 13.692 Z" fill="rgba(152, 173, 204, 1.00)"/></symbol></svg>